<svg xmlns="http://www.w3.org/2000/svg"><symbol id="mecha-stilts" viewBox="0 0 256 256"><path d="M100.3 154.4H120v12.44h-19.7zm23.7 0h12.6v12.44H124zm6.4-82.3c-23.2 0-42.5 14-43.5 39.5h86.9c-1-25.5-20.3-39.5-43.4-39.5zm-46.7 82.3h12.6v12.44H83.7zm56.9 0h19.7v12.44h-19.7zm23.7 0h12.6v12.44h-12.6z"/><path d="M130.4 6.1L26.2 66.3v120.2l104.2 60.2 104.1-60.2V66.3zm62.4 146.4a1.8 1.8 0 0 1-2 1.9h-9.9v12.5h9.9a2.2 2.2 0 0 1 2 2 2.1 2.1 0 0 1-2 1.9H69.9a2.1 2.1 0 0 1-2-1.9 2.2 2.2 0 0 1 2-2h9.9v-12.5h-9.9a1.8 1.8 0 0 1-2-1.9v-38.9a1.9 1.9 0 0 1 2-2h13c1-28.1 22-43.5 47.5-43.5s46.4 15.4 47.4 43.5h13a1.9 1.9 0 0 1 2 2z"/><path d="M71.9 150.5h116.9v-35H71.9zm57.5-13.4h48.2a2 2 0 0 1 0 3.9h-48.2a2 2 0 1 1 0-3.9z"/></symbol><symbol id="space-bubbles" viewBox="0 0 256 256"><path d="M98.8 146.9H85.7l-17.4 20.6 2.8 3.9 33.4-17.5-5.7-7zm-24.1-14.2h108v10.27h-108zm94.4-3.9a50.5 50.5 0 0 0 2.3-15 42.8 42.8 0 0 0-85.5 0c0 5.1.4 10.4 2.4 15zm-80.6 38.1h26.8l-8.1-9.9-18.7 9.9zm67.9-20l-5.9 7 33.6 17.5 2.7-3.7-17.3-20.8h-13.1z"/><path d="M127.5 6.1L23.4 66.3v120.2l104.1 60.2 104.2-60.2V66.3zm63.3 162.6l-4.6 6.5a2 2 0 0 1-2.5.6l-9.5-5H80.8l-9.5 5a2.2 2.2 0 0 1-2.6-.6l-4.5-6.5a2.1 2.1 0 0 1 .2-2.4l16.4-19.4h-8.1a1.8 1.8 0 0 1-2-1.9v-14.3a1.9 1.9 0 0 1 2-1.9h11.4a59 59 0 0 1-2.1-15 46.9 46.9 0 0 1 46.8-46.7c25.5 0 46.6 21.2 46.6 46.7a48.3 48.3 0 0 1-2.2 15h11.5a1.8 1.8 0 0 1 1.9 1.9V145a1.7 1.7 0 0 1-1.9 1.9h-10.1l16.2 19.4a2.1 2.1 0 0 1 0 2.4z"/><path d="M139.8 166.9h26.9l-18.8-9.9-8.1 9.9zm-35.9-20l16.6 20h14.2l16.6-20h-47.4z"/></symbol><symbol id="super-domes" viewBox="0 0 256 256"><path d="M73.2 145h53.1v21.92H73.2zm53.2-18.8V86.3l-28.5 39.9h28.5zm3.9-44v44h54.5a58.5 58.5 0 0 0-54.5-44zm0 62.8h8.9v21.92h-8.9zm-5.9-62.6c-25.3 1.5-46.4 19.9-52.5 43.8H93z"/><path d="M128.4 6.1L24.2 66.3v120.2l104.2 60.2 104.1-60.2V66.3zM213.5 145h-26.1v23.9a1.8 1.8 0 0 1-2 1.9H71.3a1.8 1.8 0 0 1-2-1.9V145H43.2a2 2 0 1 1 0-4H58v-12.8a1.9 1.9 0 0 1 2-2h7.7a62.5 62.5 0 0 1 60.4-48c.2-.2.4-.2.8 0a62.3 62.3 0 0 1 60.1 48h7.7a1.9 1.9 0 0 1 2 2V141h14.8a2 2 0 0 1 0 4z"/><path d="M62 130.2h132.7v10.86H62zm81.2 14.8h40.3v21.92h-40.3z"/></symbol><symbol id="mecha-stilts" viewBox="0 0 256 256"><path d="M100.3 154.4H120v12.44h-19.7zm23.7 0h12.6v12.44H124zm6.4-82.3c-23.2 0-42.5 14-43.5 39.5h86.9c-1-25.5-20.3-39.5-43.4-39.5zm-46.7 82.3h12.6v12.44H83.7zm56.9 0h19.7v12.44h-19.7zm23.7 0h12.6v12.44h-12.6z"/><path d="M130.4 6.1L26.2 66.3v120.2l104.2 60.2 104.1-60.2V66.3zm62.4 146.4a1.8 1.8 0 0 1-2 1.9h-9.9v12.5h9.9a2.2 2.2 0 0 1 2 2 2.1 2.1 0 0 1-2 1.9H69.9a2.1 2.1 0 0 1-2-1.9 2.2 2.2 0 0 1 2-2h9.9v-12.5h-9.9a1.8 1.8 0 0 1-2-1.9v-38.9a1.9 1.9 0 0 1 2-2h13c1-28.1 22-43.5 47.5-43.5s46.4 15.4 47.4 43.5h13a1.9 1.9 0 0 1 2 2z"/><path d="M71.9 150.5h116.9v-35H71.9zm57.5-13.4h48.2a2 2 0 0 1 0 3.9h-48.2a2 2 0 1 1 0-3.9z"/></symbol><symbol id="space-bubbles" viewBox="0 0 256 256"><path d="M98.8 146.9H85.7l-17.4 20.6 2.8 3.9 33.4-17.5-5.7-7zm-24.1-14.2h108v10.27h-108zm94.4-3.9a50.5 50.5 0 0 0 2.3-15 42.8 42.8 0 0 0-85.5 0c0 5.1.4 10.4 2.4 15zm-80.6 38.1h26.8l-8.1-9.9-18.7 9.9zm67.9-20l-5.9 7 33.6 17.5 2.7-3.7-17.3-20.8h-13.1z"/><path d="M127.5 6.1L23.4 66.3v120.2l104.1 60.2 104.2-60.2V66.3zm63.3 162.6l-4.6 6.5a2 2 0 0 1-2.5.6l-9.5-5H80.8l-9.5 5a2.2 2.2 0 0 1-2.6-.6l-4.5-6.5a2.1 2.1 0 0 1 .2-2.4l16.4-19.4h-8.1a1.8 1.8 0 0 1-2-1.9v-14.3a1.9 1.9 0 0 1 2-1.9h11.4a59 59 0 0 1-2.1-15 46.9 46.9 0 0 1 46.8-46.7c25.5 0 46.6 21.2 46.6 46.7a48.3 48.3 0 0 1-2.2 15h11.5a1.8 1.8 0 0 1 1.9 1.9V145a1.7 1.7 0 0 1-1.9 1.9h-10.1l16.2 19.4a2.1 2.1 0 0 1 0 2.4z"/><path d="M139.8 166.9h26.9l-18.8-9.9-8.1 9.9zm-35.9-20l16.6 20h14.2l16.6-20h-47.4z"/></symbol><symbol id="super-domes" viewBox="0 0 256 256"><path d="M73.2 145h53.1v21.92H73.2zm53.2-18.8V86.3l-28.5 39.9h28.5zm3.9-44v44h54.5a58.5 58.5 0 0 0-54.5-44zm0 62.8h8.9v21.92h-8.9zm-5.9-62.6c-25.3 1.5-46.4 19.9-52.5 43.8H93z"/><path d="M128.4 6.1L24.2 66.3v120.2l104.2 60.2 104.1-60.2V66.3zM213.5 145h-26.1v23.9a1.8 1.8 0 0 1-2 1.9H71.3a1.8 1.8 0 0 1-2-1.9V145H43.2a2 2 0 1 1 0-4H58v-12.8a1.9 1.9 0 0 1 2-2h7.7a62.5 62.5 0 0 1 60.4-48c.2-.2.4-.2.8 0a62.3 62.3 0 0 1 60.1 48h7.7a1.9 1.9 0 0 1 2 2V141h14.8a2 2 0 0 1 0 4z"/><path d="M62 130.2h132.7v10.86H62zm81.2 14.8h40.3v21.92h-40.3z"/></symbol></svg>