<svg xmlns="http://www.w3.org/2000/svg"><symbol id="super-domes" viewBox="0 0 256 256"><path d="M134 1l110 63.5v127L134 255 24 191.5v-127L134 1z"/><path fill="#fff" d="M73.7 174.9a2 2 0 0 1-2.1-2.1v-25.2H44.1a2.2 2.2 0 0 1-2.1-2.1 2.3 2.3 0 0 1 2.1-2.1h15.6v-13.5a2 2 0 0 1 2.1-2.1H70a66 66 0 0 1 63.8-50.7c.2-.2.4-.2.8 0a65.8 65.8 0 0 1 63.4 50.7h8.2a2 2 0 0 1 2.1 2.1v13.5h15.6a2.3 2.3 0 0 1 2.1 2.1 2.3 2.3 0 0 1-2.1 2.1h-27.5v25.2a2 2 0 0 1-2.1 2.1zM63.9 132v11.4h140.2V132zm65.9-50.5c-26.7 1.6-49 21-55.5 46.3h22.4zm-54 66.1v23.2h56.1v-23.2zm56.1-62l-30 42.2h30zm4.2-4.3v46.5h57.6a62 62 0 0 0-57.6-46.5zm0 66.3v23.2h9.4v-23.2zm13.5 0v23.2h42.6v-23.2z"/></symbol><symbol id="space-bubbles" viewBox="0 0 256 256"><path d="M128 1l110 63.5v127L128 255 18 191.5v-127L128 1z"/><path fill="#fff" d="M65.8 179.5l-4.8-6.9a2.3 2.3 0 0 1 .2-2.5l17.4-20.4H70a2 2 0 0 1-2.1-2.1v-15a2 2 0 0 1 2.1-2.1h12.1a56.6 56.6 0 0 1-2.3-15.9 49.5 49.5 0 0 1 49.4-49.2c27 0 49.3 22.3 49.3 49.2a50.2 50.2 0 0 1-2.3 15.9h12.1a2 2 0 0 1 2.1 2.1v15a2 2 0 0 1-2.1 2.1h-10.7l17.2 20.4a2.3 2.3 0 0 1 0 2.5l-4.8 6.9a2.2 2.2 0 0 1-2.8.6l-10-5.2H78.6l-10.1 5.2a2.1 2.1 0 0 1-2.7-.6zm31.7-29.8H83.8l-18.4 21.7 2.9 4.2 35.3-18.6zm-25.4-15v10.8h114.1v-10.8zm14.4-4.2h85.3a49.5 49.5 0 0 0 2.5-15.9 45.2 45.2 0 0 0-90.3 0c0 5.5.4 11.1 2.5 15.9zm20 29.8l-19.8 10.5h28.4zm-3.5-10.6l17.5 21.1h15l17.5-21.1zm46.5 10.6l-8.6 10.5h28.4zm22.7-10.6h-13.7l-6.3 7.3 35.5 18.6 2.9-4z"/></symbol><symbol id="mecha-stilts" viewBox="0 0 256 256"><path d="M128 1l110 63.5v127L128 255 18 191.5v-127L128 1z"/><path fill="#fff" d="M64.2 174.9a2.1 2.1 0 1 1 0-4.1h10.4v-13.2H64.2a1.9 1.9 0 0 1-2.1-2.1v-41.1a1.9 1.9 0 0 1 2.1-2h13.7C79 82.7 101.1 66.5 128 66.5s49 16.2 50.1 45.9h13.7a1.9 1.9 0 0 1 2.1 2v41.1a1.9 1.9 0 0 1-2.1 2.1h-10.4v13.2h10.4a2.1 2.1 0 1 1 0 4.1zm2-58.4v36.9h123.5v-36.9zm12.6 41.1v13.2h13.3v-13.2zm3.3-45.2h91.8c-1.1-27-21.5-41.8-45.9-41.8s-44.9 14.8-45.9 41.8zm14.2 45.2v13.2h20.8v-13.2zm25 0v13.2h13.4v-13.2zm56.6-14.2H127a2.1 2.1 0 1 1 0-4.1h50.9a2.1 2.1 0 0 1 0 4.1zm-39.1 14.2v13.2h20.9v-13.2zm25.1 0v13.2h13.3v-13.2z"/></symbol></svg>