<svg xmlns="http://www.w3.org/2000/svg" id="Layer_1" width="256" height="256" viewBox="0 0 256 256"><path d="M100.3 154.4H120v12.44h-19.7zm23.7 0h12.6v12.44H124zm6.4-82.3c-23.2 0-42.5 14-43.5 39.5h86.9c-1-25.5-20.3-39.5-43.4-39.5zm-46.7 82.3h12.6v12.44H83.7zm56.9 0h19.7v12.44h-19.7zm23.7 0h12.6v12.44h-12.6z"/><path d="M130.4 6.1L26.2 66.3v120.2l104.2 60.2 104.1-60.2V66.3zm62.4 146.4a1.8 1.8 0 0 1-2 1.9h-9.9v12.5h9.9a2.2 2.2 0 0 1 2 2 2.1 2.1 0 0 1-2 1.9H69.9a2.1 2.1 0 0 1-2-1.9 2.2 2.2 0 0 1 2-2h9.9v-12.5h-9.9a1.8 1.8 0 0 1-2-1.9v-38.9a1.9 1.9 0 0 1 2-2h13c1-28.1 22-43.5 47.5-43.5s46.4 15.4 47.4 43.5h13a1.9 1.9 0 0 1 2 2z"/><path d="M71.9 150.5h116.9v-35H71.9zm57.5-13.4h48.2a2 2 0 0 1 0 3.9h-48.2a2 2 0 1 1 0-3.9z"/></svg>