<svg xmlns="http://www.w3.org/2000/svg" id="Layer_1" width="256" height="256" viewBox="0 0 256 256"><path d="M98.8 146.9H85.7l-17.4 20.6 2.8 3.9 33.4-17.5-5.7-7zm-24.1-14.2h108v10.27h-108zm94.4-3.9a50.5 50.5 0 0 0 2.3-15 42.8 42.8 0 0 0-85.5 0c0 5.1.4 10.4 2.4 15zm-80.6 38.1h26.8l-8.1-9.9-18.7 9.9zm67.9-20l-5.9 7 33.6 17.5 2.7-3.7-17.3-20.8h-13.1z"/><path d="M127.5 6.1L23.4 66.3v120.2l104.1 60.2 104.2-60.2V66.3zm63.3 162.6l-4.6 6.5a2 2 0 0 1-2.5.6l-9.5-5H80.8l-9.5 5a2.2 2.2 0 0 1-2.6-.6l-4.5-6.5a2.1 2.1 0 0 1 .2-2.4l16.4-19.4h-8.1a1.8 1.8 0 0 1-2-1.9v-14.3a1.9 1.9 0 0 1 2-1.9h11.4a59 59 0 0 1-2.1-15 46.9 46.9 0 0 1 46.8-46.7c25.5 0 46.6 21.2 46.6 46.7a48.3 48.3 0 0 1-2.2 15h11.5a1.8 1.8 0 0 1 1.9 1.9V145a1.7 1.7 0 0 1-1.9 1.9h-10.1l16.2 19.4a2.1 2.1 0 0 1 0 2.4z"/><path d="M139.8 166.9h26.9l-18.8-9.9-8.1 9.9zm-35.9-20l16.6 20h14.2l16.6-20h-47.4z"/></svg>