<svg xmlns="http://www.w3.org/2000/svg" id="Layer_1" width="256" height="256" viewBox="0 0 256 256"><path d="M73.2 145h53.1v21.92H73.2zm53.2-18.8V86.3l-28.5 39.9h28.5zm3.9-44v44h54.5a58.5 58.5 0 0 0-54.5-44zm0 62.8h8.9v21.92h-8.9zm-5.9-62.6c-25.3 1.5-46.4 19.9-52.5 43.8H93z"/><path d="M128.4 6.1L24.2 66.3v120.2l104.2 60.2 104.1-60.2V66.3zM213.5 145h-26.1v23.9a1.8 1.8 0 0 1-2 1.9H71.3a1.8 1.8 0 0 1-2-1.9V145H43.2a2 2 0 1 1 0-4H58v-12.8a1.9 1.9 0 0 1 2-2h7.7a62.5 62.5 0 0 1 60.4-48c.2-.2.4-.2.8 0a62.3 62.3 0 0 1 60.1 48h7.7a1.9 1.9 0 0 1 2 2V141h14.8a2 2 0 0 1 0 4z"/><path d="M62 130.2h132.7v10.86H62zm81.2 14.8h40.3v21.92h-40.3z"/></svg>